<svg width="512" height="512" viewBox="0 0 512 512" fill="none" xmlns="http://www.w3.org/2000/svg">
<path d="M414.683 304.86C414.683 360.527 392.798 410.927 357.109 448.16C319.423 487.482 266.298 512 207.543 512C93.121 512 0.403 419.282 0.403 304.86C0.403 289.423 2.129 274.348 5.307 259.818C25.921 167.101 108.56 97.721 207.543 97.721C244.141 97.721 278.467 107.165 308.252 123.875C308.343 123.875 308.433 123.875 308.524 123.966L385.531 198.885C404.058 229.851 414.683 266.085 414.683 304.86Z" fill="#2F2E3C"/>
<path d="M357.109 448.161C319.423 487.483 266.298 512.001 207.543 512.001C93.121 512.001 0.403 419.283 0.403 304.861C0.403 289.424 2.129 274.349 5.307 259.819C39.452 375.966 146.79 460.693 274.017 460.693C302.895 460.693 330.865 456.333 357.109 448.161ZM409.665 174.751L385.531 198.885L385.506 198.86C377.719 206.647 354.37 195.921 333.353 174.903C312.336 153.886 301.61 130.535 309.396 122.75L308.252 123.875L333.475 98.652" fill="#20202B"/>
<path d="M409.608 174.743C417.393 166.957 406.668 143.609 385.652 122.593C364.636 101.578 341.288 90.8536 333.502 98.6397C325.716 106.426 336.441 129.774 357.457 150.789C378.474 171.804 401.822 182.529 409.608 174.743Z" fill="#2F2E3C"/>
<path d="M435.702 83.4689L377.02 142.151C376.305 142.869 375.455 143.438 374.519 143.826C373.583 144.215 372.58 144.415 371.566 144.415C369.517 144.413 367.552 143.599 366.101 142.151C364.658 140.7 363.848 138.738 363.848 136.691C363.848 134.645 364.658 132.682 366.101 131.232L393.847 103.486L393.888 103.445L424.783 72.5599C426.231 71.1119 428.195 70.2985 430.243 70.2985C432.29 70.2985 434.254 71.1119 435.702 72.5599C436.419 73.2757 436.988 74.1259 437.376 75.0619C437.765 75.9978 437.964 77.0011 437.964 78.0144C437.964 79.0276 437.765 80.0309 437.376 80.9669C436.988 81.9028 436.419 82.753 435.702 83.4689Z" fill="#8FA3A9"/>
<path d="M435.702 83.4689L404.807 114.364C404.092 115.082 403.242 115.651 402.306 116.039C401.37 116.428 400.367 116.628 399.353 116.628C397.304 116.626 395.339 115.812 393.888 114.364C390.893 111.359 390.883 106.501 393.847 103.486L393.888 103.445L424.783 72.5599C426.231 71.1119 428.195 70.2985 430.243 70.2985C432.29 70.2985 434.254 71.1119 435.702 72.5599C436.419 73.2757 436.988 74.1259 437.376 75.0619C437.765 75.9978 437.964 77.0011 437.964 78.0144C437.964 79.0276 437.765 80.0309 437.376 80.9669C436.988 81.9028 436.419 82.753 435.702 83.4689Z" fill="#EC1422"/>
<path d="M169.917 136.286C123.826 143.488 256.388 244.177 332.207 282.18C342.785 287.482 355.363 280.411 356.563 268.639C357.885 255.67 356.791 237.401 347.755 214.989C331.826 175.485 241.052 124.934 169.917 136.286Z" fill="#525464"/>
<path d="M432.403 52.003C431.39 52.0031 430.386 51.8036 429.449 51.4157C428.513 51.0278 427.662 50.4593 426.945 49.7425C426.228 49.0256 425.659 48.1747 425.272 47.2381C424.884 46.3015 424.684 45.2977 424.684 44.284V7.719C424.684 3.455 428.139 0 432.403 0C436.667 0 440.122 3.455 440.122 7.719V44.285C440.122 46.332 439.308 48.2949 437.861 49.7422C436.413 51.1895 434.45 52.0027 432.403 52.003ZM432.403 160.595C431.39 160.595 430.386 160.396 429.449 160.008C428.513 159.62 427.662 159.051 426.945 158.334C426.228 157.618 425.659 156.767 425.272 155.83C424.884 154.894 424.684 153.89 424.684 152.876V116.31C424.684 112.046 428.139 108.591 432.403 108.591C436.667 108.591 440.122 112.046 440.122 116.31V152.877C440.122 154.924 439.308 156.887 437.861 158.334C436.413 159.782 434.45 160.595 432.403 160.595ZM409.258 60.43C408.13 60.4316 407.016 60.1856 405.993 59.7092C404.971 59.2328 404.066 58.5377 403.341 57.673L379.837 29.66C379.186 28.8836 378.693 27.9865 378.388 27.0198C378.083 26.0531 377.972 25.0358 378.06 24.026C378.148 23.0162 378.435 22.0337 378.903 21.1346C379.371 20.2355 380.012 19.4374 380.788 18.786C381.565 18.1341 382.462 17.6416 383.428 17.3366C384.395 17.0316 385.412 16.9201 386.422 17.0084C387.432 17.0967 388.415 17.3832 389.314 17.8513C390.213 18.3195 391.011 18.9603 391.662 19.737L415.167 47.749C415.819 48.5254 416.311 49.4225 416.616 50.3892C416.921 51.3559 417.033 52.3732 416.944 53.383C416.856 54.3928 416.57 55.3753 416.102 56.2744C415.634 57.1735 414.993 57.9716 414.216 58.623C412.829 59.7918 411.072 60.4319 409.258 60.43ZM479.059 143.614C477.931 143.616 476.817 143.37 475.794 142.893C474.772 142.417 473.867 141.722 473.142 140.857L449.637 112.846C448.986 112.07 448.493 111.172 448.188 110.206C447.883 109.239 447.772 108.222 447.86 107.212C447.948 106.202 448.235 105.22 448.703 104.321C449.171 103.422 449.812 102.623 450.588 101.972C452.157 100.657 454.183 100.018 456.222 100.196C458.261 100.374 460.146 101.355 461.462 102.923L484.967 130.934C485.619 131.71 486.111 132.608 486.416 133.574C486.721 134.541 486.833 135.558 486.744 136.568C486.656 137.578 486.37 138.56 485.902 139.459C485.434 140.358 484.793 141.157 484.016 141.808C482.629 142.976 480.873 143.616 479.059 143.614ZM396.946 81.764C396.5 81.764 396.051 81.726 395.596 81.646L359.585 75.296C358.587 75.1201 357.633 74.7492 356.779 74.2047C355.924 73.6601 355.185 72.9525 354.603 72.1222C354.022 71.2919 353.61 70.3552 353.391 69.3657C353.171 68.3762 353.149 67.3531 353.325 66.355C353.501 65.3566 353.871 64.4026 354.416 63.5475C354.96 62.6924 355.668 61.953 356.498 61.3716C357.329 60.7902 358.265 60.3782 359.255 60.1592C360.245 59.9401 361.268 59.9183 362.266 60.095L398.277 66.445C400.176 66.7822 401.879 67.8179 403.053 69.348C404.226 70.8782 404.784 72.7922 404.617 74.7132C404.45 76.6342 403.57 78.4232 402.151 79.7281C400.731 81.033 398.875 81.7592 396.946 81.764ZM503.887 100.621C503.441 100.621 502.992 100.583 502.537 100.503L466.527 94.153C465.529 93.9771 464.575 93.6062 463.721 93.0617C462.866 92.5171 462.127 91.8095 461.545 90.9792C460.964 90.1489 460.552 89.2123 460.333 88.2227C460.113 87.2332 460.091 86.2101 460.267 85.212C461.008 81.014 465.007 78.206 469.208 78.952L505.218 85.302C506.216 85.4779 507.17 85.8488 508.025 86.3933C508.88 86.9379 509.619 87.6455 510.2 88.4758C510.782 89.3061 511.194 90.2428 511.413 91.2323C511.632 92.2218 511.654 93.2449 511.478 94.243C511.163 96.0282 510.23 97.6455 508.842 98.8117C507.454 99.9778 505.7 100.618 503.887 100.621ZM463.596 70.011C461.896 70.0127 460.243 69.4532 458.894 68.4194C457.545 67.3856 456.574 65.9352 456.133 64.2934C455.693 62.6517 455.806 60.9103 456.456 59.3397C457.107 57.769 458.257 56.4569 459.729 55.607L491.397 37.323C493.169 36.3209 495.265 36.0592 497.228 36.5946C499.192 37.1301 500.865 38.4194 501.882 40.1821C502.9 41.9447 503.18 44.038 502.662 46.0063C502.144 47.9746 500.87 49.6587 499.116 50.692L467.449 68.976C466.278 69.6539 464.949 70.0109 463.596 70.011Z" fill="#F49F00"/>
</svg>
