<svg width="364" height="512" viewBox="0 0 364 512" fill="none" xmlns="http://www.w3.org/2000/svg">
<path d="M29.9191 51.744C29.9191 51.744 71.2151 85.24 138.927 70.144C203.127 55.88 262.983 39.68 363.543 76V291.032C363.543 291.032 271.055 246.928 186.807 266.6C102.559 286.272 54.9271 278.72 29.9191 253.712" fill="#E21B1B"/>
<path d="M16.74 37.524H32.74V511.999H16.74V37.524Z" fill="#999999"/>
<path d="M24.741 48.568C38.1527 48.568 49.025 37.6957 49.025 24.284C49.025 10.8723 38.1527 0 24.741 0C11.3293 0 0.457031 10.8723 0.457031 24.284C0.457031 37.6957 11.3293 48.568 24.741 48.568Z" fill="#666666"/>
</svg>
